<svg width="296" height="82" viewBox="0 0 296 82" fill="none" xmlns="http://www.w3.org/2000/svg">
<path d="M119.445 27.4688V30.9485H108.407V38.6188H117.013V42.0985H108.407V53.473H104.142V27.4688H119.445ZM125.568 30.1253C124.795 30.1253 124.146 29.8634 123.622 29.3396C123.098 28.8158 122.837 28.1672 122.837 27.394C122.837 26.6207 123.098 25.9722 123.622 25.4483C124.146 24.9245 124.795 24.6626 125.568 24.6626C126.316 24.6626 126.952 24.9245 127.476 25.4483C128 25.9722 128.262 26.6207 128.262 27.394C128.262 28.1672 128 28.8158 127.476 29.3396C126.952 29.8634 126.316 30.1253 125.568 30.1253ZM127.663 32.8567V53.473H123.398V32.8567H127.663ZM137.529 25.7851V53.473H133.263V25.7851H137.529ZM162.024 42.6598C162.024 43.433 161.974 44.1315 161.874 44.7551H146.122C146.247 46.4014 146.858 47.7234 147.956 48.7212C149.053 49.7189 150.4 50.2178 151.997 50.2178C154.291 50.2178 155.913 49.2575 156.861 47.3368H161.463C160.839 49.2325 159.704 50.7915 158.058 52.0138C156.437 53.2111 154.416 53.8098 151.997 53.8098C150.026 53.8098 148.255 53.3732 146.684 52.5002C145.137 51.6022 143.915 50.355 143.017 48.7586C142.144 47.1372 141.707 45.2664 141.707 43.1462C141.707 41.0259 142.131 39.1676 142.979 37.5712C143.852 35.9498 145.062 34.7026 146.609 33.8295C148.18 32.9565 149.976 32.52 151.997 32.52C153.942 32.52 155.676 32.944 157.197 33.7921C158.719 34.6402 159.904 35.8375 160.752 37.3841C161.6 38.9057 162.024 40.6642 162.024 42.6598ZM157.572 41.3128C157.547 39.7413 156.985 38.4816 155.888 37.5337C154.79 36.5859 153.431 36.1119 151.81 36.1119C150.338 36.1119 149.078 36.5859 148.031 37.5337C146.983 38.4567 146.359 39.7164 146.16 41.3128H157.572ZM174.715 27.4688C177.484 27.4688 179.904 28.0051 181.974 29.0777C184.069 30.1253 185.678 31.6469 186.801 33.6425C187.948 35.613 188.522 37.9204 188.522 40.5644C188.522 43.2085 187.948 45.5034 186.801 47.449C185.678 49.3947 184.069 50.8913 181.974 51.939C179.904 52.9617 177.484 53.473 174.715 53.473H166.222V27.4688H174.715ZM174.715 49.9933C177.758 49.9933 180.091 49.1702 181.712 47.5239C183.333 45.8775 184.144 43.5577 184.144 40.5644C184.144 37.5462 183.333 35.189 181.712 33.4928C180.091 31.7966 177.758 30.9485 174.715 30.9485H170.487V49.9933H174.715ZM197.015 35.85C197.638 34.8024 198.461 33.9917 199.484 33.418C200.532 32.8193 201.767 32.52 203.188 32.52V36.9351H202.103C200.432 36.9351 199.16 37.3591 198.287 38.2072C197.439 39.0553 197.015 40.527 197.015 42.6223V53.473H192.749V32.8567H197.015V35.85ZM209.279 30.1253C208.506 30.1253 207.857 29.8634 207.334 29.3396C206.81 28.8158 206.548 28.1672 206.548 27.394C206.548 26.6207 206.81 25.9722 207.334 25.4483C207.857 24.9245 208.506 24.6626 209.279 24.6626C210.028 24.6626 210.664 24.9245 211.188 25.4483C211.711 25.9722 211.973 26.6207 211.973 27.394C211.973 28.1672 211.711 28.8158 211.188 29.3396C210.664 29.8634 210.028 30.1253 209.279 30.1253ZM211.375 32.8567V53.473H207.109V32.8567H211.375ZM224.944 49.6566L230.781 32.8567H235.309L227.451 53.473H222.363L214.543 32.8567H219.107L224.944 49.6566ZM240.703 30.1253C239.93 30.1253 239.281 29.8634 238.757 29.3396C238.234 28.8158 237.972 28.1672 237.972 27.394C237.972 26.6207 238.234 25.9722 238.757 25.4483C239.281 24.9245 239.93 24.6626 240.703 24.6626C241.451 24.6626 242.087 24.9245 242.611 25.4483C243.135 25.9722 243.397 26.6207 243.397 27.394C243.397 28.1672 243.135 28.8158 242.611 29.3396C242.087 29.8634 241.451 30.1253 240.703 30.1253ZM242.798 32.8567V53.473H238.533V32.8567H242.798ZM258.8 32.52C260.422 32.52 261.868 32.8567 263.14 33.5302C264.438 34.2037 265.448 35.2015 266.171 36.5235C266.895 37.8455 267.256 39.442 267.256 41.3128V53.473H263.028V41.9488C263.028 40.103 262.567 38.6936 261.644 37.7208C260.721 36.7231 259.461 36.2242 257.865 36.2242C256.268 36.2242 254.996 36.7231 254.048 37.7208C253.125 38.6936 252.664 40.103 252.664 41.9488V53.473H248.398V32.8567H252.664V35.2139C253.362 34.3658 254.248 33.7048 255.32 33.2309C256.418 32.7569 257.578 32.52 258.8 32.52ZM281.003 32.52C282.6 32.52 284.009 32.8443 285.231 33.4928C286.479 34.1164 287.451 34.9021 288.15 35.85V32.8567H292.453V53.8098C292.453 55.7055 292.054 57.3892 291.255 58.8609C290.457 60.3576 289.297 61.53 287.776 62.3781C286.279 63.2262 284.483 63.6502 282.388 63.6502C279.594 63.6502 277.274 62.9892 275.428 61.6672C273.583 60.3701 272.535 58.599 272.285 56.3541H276.513C276.838 57.4267 277.524 58.2872 278.571 58.9358C279.644 59.6093 280.916 59.946 282.388 59.946C284.109 59.946 285.493 59.4222 286.541 58.3745C287.614 57.3269 288.15 55.8053 288.15 53.8098V50.3675C287.427 51.3403 286.441 52.1635 285.194 52.8369C283.972 53.4855 282.575 53.8098 281.003 53.8098C279.207 53.8098 277.561 53.3608 276.064 52.4628C274.593 51.5399 273.42 50.2677 272.547 48.6463C271.699 47 271.275 45.1417 271.275 43.0713C271.275 41.001 271.699 39.1676 272.547 37.5712C273.42 35.9747 274.593 34.74 276.064 33.867C277.561 32.969 279.207 32.52 281.003 32.52ZM288.15 43.1462C288.15 41.7244 287.851 40.4896 287.252 39.442C286.678 38.3943 285.917 37.5961 284.97 37.0473C284.022 36.4986 282.999 36.2242 281.901 36.2242C280.804 36.2242 279.781 36.4986 278.833 37.0473C277.885 37.5712 277.112 38.3569 276.513 39.4045C275.94 40.4273 275.653 41.6495 275.653 43.0713C275.653 44.4931 275.94 45.7404 276.513 46.8129C277.112 47.8855 277.885 48.7087 278.833 49.2824C279.806 49.8312 280.829 50.1056 281.901 50.1056C282.999 50.1056 284.022 49.8312 284.97 49.2824C285.917 48.7336 286.678 47.9354 287.252 46.8878C287.851 45.8152 288.15 44.568 288.15 43.1462Z" fill="white"/>
<rect opacity="0.2" width="74.8323" height="74.8323" rx="37.4161" fill="white"/>
<rect x="32.7393" y="31.1801" width="49.8882" height="49.8882" rx="24.9441" fill="white"/>
</svg>
